<svg width="122" height="49" viewBox="0 0 122 49" fill="none" xmlns="http://www.w3.org/2000/svg">
<path d="M9.856 9.72408C11.488 9.72408 12.616 10.1561 13.24 11.0201C13.688 11.6121 13.912 12.3641 13.912 13.2761C13.912 13.6441 13.872 14.0361 13.792 14.4521L13.312 17.2601C13.04 18.7801 12.456 19.9401 11.56 20.7401C10.664 21.5241 9.544 21.9161 8.2 21.9161C6.856 21.9161 5.92 21.5561 5.392 20.8361L4.096 28.2521H0.016L3.232 10.0361H6.928L6.808 10.6841C7.56 10.0441 8.576 9.72408 9.856 9.72408ZM7.36 18.4601C7.808 18.4601 8.224 18.3161 8.608 18.0281C8.992 17.7401 9.232 17.3081 9.328 16.7321L9.64 14.9321C9.672 14.7721 9.688 14.5721 9.688 14.3321C9.688 14.0921 9.584 13.8361 9.376 13.5641C9.168 13.2921 8.808 13.1561 8.296 13.1561C7.464 13.1561 6.92 13.3561 6.664 13.7561L5.944 17.7881C6.168 18.2361 6.64 18.4601 7.36 18.4601ZM20.4201 18.5081C20.7881 18.5081 21.1161 18.4281 21.4041 18.2681L21.2841 20.9801C20.5321 21.6041 19.6761 21.9161 18.7161 21.9161C17.2601 21.9161 16.3161 21.5801 15.8841 20.9081C15.5961 20.4601 15.4521 19.9881 15.4521 19.4921C15.4521 18.9801 15.4841 18.5321 15.5481 18.1481L16.9881 10.0361H21.0681L19.7241 17.5961C19.7081 17.6921 19.7001 17.7801 19.7001 17.8601C19.7001 18.2921 19.9401 18.5081 20.4201 18.5081ZM17.4681 6.12408C17.4681 5.10008 17.6921 4.35608 18.1401 3.89208C18.6041 3.41208 19.3161 3.17208 20.2761 3.17208C21.6201 3.17208 22.2921 3.76408 22.2921 4.94808C22.2921 5.95608 22.0601 6.69208 21.5961 7.15608C21.1481 7.62008 20.4361 7.85208 19.4601 7.85208C18.1321 7.85208 17.4681 7.27608 17.4681 6.12408ZM32.9836 21.5801H22.2076L22.8076 18.2201L29.5756 13.3961H23.6476L24.2476 10.0361H35.0236L34.4236 13.3961L27.8716 18.2201H33.5836L32.9836 21.5801ZM45.9679 21.5801H35.1919L35.7919 18.2201L42.5599 13.3961H36.6319L37.2319 10.0361H48.0079L47.4079 13.3961L40.8559 18.2201H46.5679L45.9679 21.5801ZM60.1043 17.8841C60.1043 18.3001 60.3123 18.5081 60.7283 18.5081C61.1603 18.5081 61.5203 18.4281 61.8083 18.2681L61.6883 20.9801C60.9203 21.6041 60.0563 21.9161 59.0963 21.9161C57.3363 21.9161 56.3603 21.2761 56.1683 19.9961C55.3683 21.2761 54.1923 21.9161 52.6403 21.9161C50.0163 21.9161 48.7043 20.7881 48.7043 18.5321C48.7043 18.1481 48.7443 17.7241 48.8243 17.2601L49.3283 14.4521C49.5843 13.0121 50.1683 11.8681 51.0803 11.0201C52.0083 10.1561 53.2083 9.72408 54.6803 9.72408C56.1683 9.72408 57.1763 10.0681 57.7043 10.7561L57.8243 10.0361H61.4723L60.1283 17.5961C60.1123 17.6921 60.1043 17.7881 60.1043 17.8841ZM53.0003 16.7321C52.9683 16.8761 52.9523 17.0761 52.9523 17.3321C52.9523 17.5881 53.0723 17.8441 53.3123 18.1001C53.5523 18.3401 53.9523 18.4601 54.5123 18.4601C55.0883 18.4601 55.5843 18.2361 56.0003 17.7881L56.7203 13.7561C56.5443 13.3561 56.1283 13.1561 55.4723 13.1561C54.2403 13.1561 53.5203 13.7481 53.3123 14.9321L53.0003 16.7321ZM81.5074 18.5081C81.8754 18.5081 82.2034 18.4281 82.4914 18.2681L82.3714 20.9801C81.6194 21.6041 80.7634 21.9161 79.8034 21.9161C77.6274 21.9161 76.5394 21.0041 76.5394 19.1801C76.5394 18.8601 76.5714 18.5161 76.6354 18.1481L77.1634 15.1961C77.2114 14.9081 77.2354 14.6201 77.2354 14.3321C77.2354 13.5641 76.8274 13.1801 76.0114 13.1801C75.2114 13.1801 74.5874 13.4521 74.1394 13.9961L72.7954 21.5801H68.7154L71.9314 3.36408H76.0114L74.6434 11.1161C75.5234 10.1721 76.6274 9.70008 77.9554 9.70008C79.5714 9.70008 80.6194 10.0601 81.0994 10.7801C81.4354 11.2601 81.6034 11.7961 81.6034 12.3881C81.6034 12.9801 81.5554 13.5241 81.4594 14.0201L80.8114 17.5961C80.7954 17.6921 80.7874 17.7801 80.7874 17.8601C80.7874 18.2921 81.0274 18.5081 81.5074 18.5081ZM95.4788 17.8841C95.4788 18.3001 95.6868 18.5081 96.1028 18.5081C96.5348 18.5081 96.8948 18.4281 97.1828 18.2681L97.0628 20.9801C96.2948 21.6041 95.4308 21.9161 94.4708 21.9161C92.6628 21.9161 91.6788 21.2201 91.5188 19.8281C90.5588 21.2201 89.2628 21.9161 87.6308 21.9161C86.0148 21.9161 84.9668 21.5481 84.4868 20.8121C84.1668 20.3481 84.0068 19.8201 84.0068 19.2281C84.0068 18.6361 84.0548 18.0921 84.1508 17.5961L85.4948 10.0361H89.5748L88.4468 16.4201C88.3988 16.7081 88.3748 16.9961 88.3748 17.2841C88.3748 18.0521 88.8068 18.4361 89.6708 18.4361C90.3908 18.4361 90.9668 18.1881 91.3988 17.6921L92.7668 10.0361H96.8468L95.5028 17.5961C95.4868 17.6921 95.4788 17.7881 95.4788 17.8841ZM103.812 21.9161C101.956 21.9161 100.62 21.5001 99.8044 20.6681C99.1964 20.0601 98.8924 19.2441 98.8924 18.2201C98.8924 17.8841 98.9244 17.5241 98.9884 17.1401L100.62 7.85208L105.012 6.02808L104.316 10.0361H110.94L110.34 13.4201H103.716L103.236 16.1321C103.172 16.4361 103.14 16.7081 103.14 16.9481C103.14 17.9561 103.62 18.4601 104.58 18.4601C105.092 18.4601 105.516 18.2441 105.852 17.8121C106.204 17.3801 106.444 16.8041 106.572 16.0841H110.556C109.884 19.9721 107.636 21.9161 103.812 21.9161Z" fill="white"/>
<path d="M23.12 34.9401H20.46L20 37.5801H18.19L19.46 30.3801H24.48L24.2 31.9401H20.98L20.73 33.3801H23.39L23.12 34.9401ZM28.0956 30.3101C29.7023 30.3101 30.5056 30.9667 30.5056 32.2801C30.5056 32.5001 30.4823 32.7367 30.4356 32.9901L30.0856 34.9901C29.9256 35.9167 29.579 36.6034 29.0456 37.0501C28.5123 37.4967 27.7623 37.7201 26.7956 37.7201C25.829 37.7201 25.1556 37.4967 24.7756 37.0501C24.5156 36.7434 24.3856 36.3201 24.3856 35.7801C24.3856 35.5401 24.4123 35.2767 24.4656 34.9901L24.8156 32.9901C25.129 31.2034 26.2223 30.3101 28.0956 30.3101ZM27.0656 36.1701C27.399 36.1701 27.6656 36.0834 27.8656 35.9101C28.0656 35.7367 28.2056 35.4167 28.2856 34.9501L28.6256 33.0301C28.6456 32.8967 28.6556 32.7767 28.6556 32.6701C28.6556 32.1301 28.3823 31.8601 27.8356 31.8601C27.149 31.8734 26.739 32.2634 26.6056 33.0301L26.2656 34.9501C26.239 35.1167 26.2256 35.2901 26.2256 35.4701C26.2256 35.9367 26.5056 36.1701 27.0656 36.1701ZM34.7363 30.3101C36.3429 30.3101 37.1463 30.9667 37.1463 32.2801C37.1463 32.5001 37.1229 32.7367 37.0763 32.9901L36.7263 34.9901C36.5663 35.9167 36.2196 36.6034 35.6863 37.0501C35.1529 37.4967 34.4029 37.7201 33.4363 37.7201C32.4696 37.7201 31.7963 37.4967 31.4163 37.0501C31.1563 36.7434 31.0263 36.3201 31.0263 35.7801C31.0263 35.5401 31.0529 35.2767 31.1063 34.9901L31.4563 32.9901C31.7696 31.2034 32.8629 30.3101 34.7363 30.3101ZM33.7063 36.1701C34.0396 36.1701 34.3063 36.0834 34.5063 35.9101C34.7063 35.7367 34.8463 35.4167 34.9263 34.9501L35.2663 33.0301C35.2863 32.8967 35.2963 32.7767 35.2963 32.6701C35.2963 32.1301 35.0229 31.8601 34.4763 31.8601C33.7896 31.8734 33.3796 32.2634 33.2463 33.0301L32.9063 34.9501C32.8796 35.1167 32.8663 35.2901 32.8663 35.4701C32.8663 35.9367 33.1463 36.1701 33.7063 36.1701ZM41.5569 30.3801C42.4302 30.3801 43.0535 30.6001 43.4269 31.0401C43.7002 31.3734 43.8369 31.7901 43.8369 32.2901C43.8369 32.4701 43.8202 32.6601 43.7869 32.8601L43.3969 35.0901C43.2635 35.8434 42.9369 36.4467 42.4169 36.9001C41.8969 37.3534 41.2235 37.5801 40.3969 37.5801H37.4869L38.7569 30.3801H41.5569ZM40.9269 31.9401H40.2769L39.5669 36.0201H40.5169C40.8302 36.0201 41.0735 35.9367 41.2469 35.7701C41.4269 35.5967 41.5502 35.3167 41.6169 34.9301L41.9069 33.2901C41.9335 33.1434 41.9469 33.0101 41.9469 32.8901C41.9469 32.2567 41.6069 31.9401 40.9269 31.9401ZM49.0287 37.7201C47.4153 37.7201 46.6087 37.1601 46.6087 36.0401C46.6087 35.4934 46.7587 35.0467 47.0587 34.7001C47.3653 34.3467 47.7387 34.1701 48.1787 34.1701V34.1401C47.8787 34.1401 47.642 34.0034 47.4687 33.7301C47.2953 33.4567 47.2087 33.1434 47.2087 32.7901C47.2087 32.0634 47.4887 31.4701 48.0487 31.0101C48.6087 30.5434 49.3887 30.3101 50.3887 30.3101C51.162 30.3101 51.7453 30.4567 52.1387 30.7501C52.5387 31.0367 52.7387 31.4367 52.7387 31.9501C52.7387 32.1367 52.712 32.3134 52.6587 32.4801C52.612 32.6467 52.562 32.7667 52.5087 32.8401L52.4287 32.9401H50.6587C50.7987 32.8001 50.8687 32.6067 50.8687 32.3601C50.8687 32.0267 50.612 31.8601 50.0987 31.8601C49.7787 31.8601 49.5153 31.9467 49.3087 32.1201C49.102 32.2867 48.9987 32.4967 48.9987 32.7501C48.9987 33.0034 49.0787 33.2067 49.2387 33.3601C49.3987 33.5134 49.6187 33.5934 49.8987 33.6001H52.9687L52.7687 34.6901H52.3287L52.2187 35.3001C52.072 36.1134 51.7187 36.7201 51.1587 37.1201C50.6053 37.5201 49.8953 37.7201 49.0287 37.7201ZM48.4887 35.5101C48.4887 35.7034 48.5587 35.8634 48.6987 35.9901C48.8387 36.1101 49.0253 36.1701 49.2587 36.1701C49.9987 36.1701 50.4187 35.8801 50.5187 35.3001L50.6287 34.6901H49.4887C48.822 34.6901 48.4887 34.9634 48.4887 35.5101ZM59.8209 30.3801C60.5809 30.3801 61.1209 30.5467 61.4409 30.8801C61.6809 31.1334 61.8009 31.4534 61.8009 31.8401C61.8009 31.9734 61.7876 32.1134 61.7609 32.2601L61.6209 33.0401C61.5409 33.4734 61.4009 33.8234 61.2009 34.0901C61.0076 34.3567 60.7909 34.5467 60.5509 34.6601L61.4609 37.5801H59.4409L58.6009 34.8901H57.9809L57.5709 37.5801H55.6509L56.9209 30.3801H59.8209ZM59.1909 31.9401H58.4409L58.1809 33.6801H58.8809C59.2343 33.6801 59.4876 33.5967 59.6409 33.4301C59.7943 33.2567 59.8709 33.0301 59.8709 32.7501C59.8709 32.2101 59.6443 31.9401 59.1909 31.9401ZM67.2334 37.5801H62.2134L63.4834 30.3801H68.5034L68.2234 31.9401H65.0034L64.7734 33.2901H67.4334L67.1534 34.8501H64.4934L64.2934 36.0201H67.5134L67.2334 37.5801ZM70.2953 35.5301C70.2953 35.9901 70.6253 36.2201 71.2853 36.2201C71.952 36.2201 72.2853 36.0134 72.2853 35.6001C72.2853 35.3801 72.172 35.2001 71.9453 35.0601C71.7186 34.9201 71.442 34.8034 71.1153 34.7101C70.7953 34.6167 70.472 34.5101 70.1453 34.3901C69.8253 34.2634 69.552 34.0701 69.3253 33.8101C69.0986 33.5434 68.9853 33.2134 68.9853 32.8201C68.9853 31.1467 70.062 30.3101 72.2153 30.3101C73.002 30.3101 73.5953 30.4601 73.9953 30.7601C74.402 31.0534 74.6053 31.4634 74.6053 31.9901C74.6053 32.1834 74.5786 32.3701 74.5253 32.5501C74.4786 32.7234 74.4286 32.8467 74.3753 32.9201L74.2953 33.0401H72.5253C72.672 32.8867 72.7453 32.6934 72.7453 32.4601C72.7453 32.0267 72.462 31.8101 71.8953 31.8101C71.182 31.8101 70.8253 32.0367 70.8253 32.4901C70.8253 32.7167 70.9386 32.8967 71.1653 33.0301C71.392 33.1634 71.6653 33.2701 71.9853 33.3501C72.312 33.4234 72.6386 33.5167 72.9653 33.6301C73.292 33.7434 73.5686 33.9334 73.7953 34.2001C74.022 34.4601 74.1353 34.8001 74.1353 35.2201C74.1353 36.0667 73.882 36.6967 73.3753 37.1101C72.8686 37.5167 72.0886 37.7201 71.0353 37.7201C69.982 37.7201 69.262 37.5334 68.8753 37.1601C68.5886 36.8801 68.4453 36.4934 68.4453 36.0001C68.4453 35.8134 68.4653 35.6101 68.5053 35.3901L68.5353 35.2301H70.3353L70.3153 35.3501C70.302 35.4167 70.2953 35.4767 70.2953 35.5301ZM81.9997 31.9401H79.5397L78.5497 37.5801H76.7397L77.7297 31.9401H75.2597L75.5397 30.3801H82.2797L81.9997 31.9401ZM84.8164 37.5801L84.8764 36.0101H83.2064L82.7164 37.5801H80.8064L83.3764 30.3801H86.6764L86.7164 37.5801H84.8164ZM84.4064 32.1301L83.6164 34.6701H84.9264L85.0364 32.1301H84.4064ZM92.5641 37.0601C92.0374 37.5001 91.2907 37.7201 90.3241 37.7201C89.3574 37.7201 88.6874 37.4967 88.3141 37.0501C88.0474 36.7434 87.9141 36.3201 87.9141 35.7801C87.9141 35.5401 87.9407 35.2767 87.9941 34.9901L88.8041 30.3801H90.6041L89.7941 34.9501C89.7674 35.1167 89.7541 35.2901 89.7541 35.4701C89.7541 35.9367 90.0341 36.1701 90.5941 36.1701C90.9274 36.1701 91.1941 36.0834 91.3941 35.9101C91.5941 35.7367 91.7341 35.4167 91.8141 34.9501L92.6241 30.3801H94.4241L93.6141 34.9901C93.4474 35.9234 93.0974 36.6134 92.5641 37.0601ZM98.6881 30.3801C99.4481 30.3801 99.9881 30.5467 100.308 30.8801C100.548 31.1334 100.668 31.4534 100.668 31.8401C100.668 31.9734 100.655 32.1134 100.628 32.2601L100.488 33.0401C100.408 33.4734 100.268 33.8234 100.068 34.0901C99.8748 34.3567 99.6581 34.5467 99.4181 34.6601L100.328 37.5801H98.3081L97.4681 34.8901H96.8481L96.4381 37.5801H94.5181L95.7881 30.3801H98.6881ZM98.0581 31.9401H97.3081L97.0481 33.6801H97.7481C98.1015 33.6801 98.3548 33.5967 98.5081 33.4301C98.6615 33.2567 98.7381 33.0301 98.7381 32.7501C98.7381 32.2101 98.5115 31.9401 98.0581 31.9401ZM104.641 37.5801L104.701 36.0101H103.031L102.541 37.5801H100.631L103.201 30.3801H106.501L106.541 37.5801H104.641ZM104.231 32.1301L103.441 34.6701H104.751L104.861 32.1301H104.231ZM114.307 30.3801L113.047 37.5801H111.237L109.977 33.6401L109.297 37.5801H107.487L108.757 30.3801H110.617L111.857 34.0601L112.507 30.3801H114.307ZM121.59 31.9401H119.13L118.14 37.5801H116.33L117.32 31.9401H114.85L115.13 30.3801H121.87L121.59 31.9401Z" fill="white"/>
</svg>
