<svg width="53" height="53" viewBox="0 0 53 53" fill="none" xmlns="http://www.w3.org/2000/svg">
<path d="M51.1434 25.37V22.25C51.1434 20.2856 50.45 18.6389 49.0634 17.31C47.6767 15.9811 46.0589 15.3167 44.21 15.3167H33.4634C32.4234 15.3167 31.4412 15.5478 30.5167 16.01L30.69 14.6233H32.0767C32.3078 14.6233 32.51 14.5656 32.6834 14.45C32.8567 14.3344 32.9434 14.1611 32.9434 13.93V11.6767C32.9434 10.7522 32.6256 10.0011 31.99 9.42334C31.3545 8.84556 30.6323 8.55667 29.8234 8.55667H22.5434V1.97C22.5434 1.85445 22.4567 1.71 22.2834 1.53667C22.11 1.36333 21.9656 1.27667 21.85 1.27667H18.9034C18.6723 1.27667 18.4989 1.36333 18.3834 1.53667C18.2678 1.71 18.21 1.85445 18.21 1.97V8.55667H10.93C10.1212 8.55667 9.39893 8.84556 8.76338 9.42334C8.12782 10.0011 7.81004 10.7522 7.81004 11.6767V13.93C7.81004 14.1611 7.89671 14.3344 8.07004 14.45C8.24338 14.5656 8.38782 14.6233 8.50338 14.6233H10.0634L10.93 27.2767H10.5834C7.9256 27.2767 5.64338 28.23 3.73671 30.1367C1.83004 32.0433 0.876709 34.2967 0.876709 36.8967C0.876709 39.4967 1.74338 41.7211 3.47671 43.57L1.05004 47.73C0.934487 47.9611 0.963376 48.1922 1.13671 48.4233C1.31004 48.6544 1.57004 48.77 1.91671 48.77L4.86338 48.0767L5.90338 51.0233C5.90338 51.2544 6.07671 51.4278 6.42338 51.5433H6.59671C6.82782 51.5433 7.00115 51.4278 7.11671 51.1967L9.71671 46.5167H11.2767L14.05 51.1967C14.1656 51.4278 14.3389 51.5433 14.57 51.5433H14.7434C14.9745 51.4278 15.1478 51.2544 15.2634 51.0233L16.3034 48.0767L19.25 48.77C19.5967 48.77 19.8567 48.6544 20.03 48.4233C20.2034 48.1922 20.1745 47.9611 19.9434 47.73L17.5167 43.57C17.9789 43.1078 18.3256 42.6456 18.5567 42.1833H26.7034C26.9345 42.8767 27.3389 43.4544 27.9167 43.9167C28.4945 44.3789 29.13 44.61 29.8234 44.61H47.85C48.7745 44.61 49.5545 44.2922 50.19 43.6567C50.8256 43.0211 51.1434 42.2411 51.1434 41.3167V37.6767C51.1434 37.4456 51.0567 37.2722 50.8834 37.1567C50.71 37.0411 50.5656 36.9833 50.45 36.9833H50.2767C50.8545 36.29 51.1434 35.4811 51.1434 34.5567C51.1434 33.2856 50.6234 32.2456 49.5834 31.4367C50.6234 30.7433 51.1434 29.7611 51.1434 28.49C51.1434 27.5656 50.8545 26.7567 50.2767 26.0633H50.45C50.5656 26.0633 50.71 25.9767 50.8834 25.8033C51.0567 25.63 51.1434 25.4856 51.1434 25.37ZM44.21 16.7033C45.7123 16.7033 47.0123 17.2522 48.11 18.35C49.2078 19.4478 49.7567 20.7478 49.7567 22.25V24.6767H27.9167V22.25C27.9167 20.7478 28.4656 19.4478 29.5634 18.35C30.6612 17.2522 31.9612 16.7033 33.4634 16.7033H44.21ZM36.5834 26.0633L34.33 28.3167L32.0767 26.0633H36.5834ZM19.5967 2.66333H21.1567V8.55667H19.5967V2.66333ZM9.19671 11.6767C9.19671 11.2144 9.37004 10.81 9.71671 10.4633C10.0634 10.1167 10.4678 9.94334 10.93 9.94334H29.8234C30.2856 9.94334 30.6612 10.1167 30.95 10.4633C31.2389 10.81 31.3834 11.2144 31.3834 11.6767V13.2367H9.19671V11.6767ZM6.59671 49.1167L6.07671 47.0367C5.8456 46.69 5.55671 46.5167 5.21004 46.5167L3.13004 47.0367L4.51671 44.4367C5.67226 45.3611 6.94338 45.9967 8.33004 46.3433L6.59671 49.1167ZM2.26338 36.9833C2.26338 34.6722 3.07226 32.7078 4.69004 31.09C6.30782 29.4722 8.24338 28.6633 10.4967 28.6633C12.75 28.6633 14.6856 29.4722 16.3034 31.09C17.9212 32.7078 18.73 34.6433 18.73 36.8967C18.73 39.15 17.9212 41.0856 16.3034 42.7033C14.6856 44.3211 12.75 45.13 10.4967 45.13C8.24338 45.13 6.30782 44.3211 4.69004 42.7033C3.07226 41.0856 2.26338 39.1789 2.26338 36.9833ZM15.9567 46.5167C15.4945 46.5167 15.2056 46.69 15.09 47.0367L14.3967 49.1167L12.8367 46.3433C14.2234 45.9967 15.4367 45.3611 16.4767 44.4367L18.0367 47.0367L15.9567 46.5167ZM12.3167 27.45L11.6234 14.6233H29.13L28.9567 16.8767C28.2634 17.57 27.6856 18.3789 27.2234 19.3033C26.7612 20.2278 26.53 21.21 26.53 22.25V25.37C26.53 25.4856 26.6167 25.63 26.79 25.8033C26.9634 25.9767 27.1078 26.0633 27.2234 26.0633H27.3967C26.8189 26.7567 26.53 27.5656 26.53 28.49C26.53 29.7611 27.05 30.7433 28.09 31.4367C27.05 32.2456 26.53 33.2856 26.53 34.5567C26.53 35.4811 26.8189 36.29 27.3967 36.9833H27.2234C27.1078 36.9833 26.9634 37.0411 26.79 37.1567C26.6167 37.2722 26.53 37.4456 26.53 37.6767V40.7967H19.4234C19.8856 39.5256 20.1167 38.2544 20.1167 36.9833C20.1167 34.6722 19.3945 32.6211 17.95 30.83C16.5056 29.0389 14.6278 27.9122 12.3167 27.45ZM49.7567 41.3167C49.7567 41.7789 49.5545 42.2122 49.15 42.6167C48.7456 43.0211 48.3123 43.2233 47.85 43.2233H29.8234C29.3612 43.2233 28.9278 43.0211 28.5234 42.6167C28.1189 42.2122 27.9167 41.7789 27.9167 41.3167V38.37H49.7567V41.3167ZM49.7567 34.5567C49.7567 35.25 49.4967 35.8278 48.9767 36.29C48.4567 36.7522 47.9078 36.9833 47.33 36.9833H30.3434C29.65 36.9833 29.0723 36.7522 28.61 36.29C28.1478 35.8278 27.9167 35.25 27.9167 34.5567C27.9167 33.8633 28.1478 33.2856 28.61 32.8233C29.0723 32.3611 29.65 32.13 30.3434 32.13H34.6767L38.3167 35.9433C38.4323 36.0589 38.6056 36.1167 38.8367 36.1167C39.0678 36.1167 39.2412 36.0589 39.3567 35.9433L42.9967 32.13H47.33C47.9078 32.13 48.4567 32.3611 48.9767 32.8233C49.4967 33.2856 49.7567 33.8633 49.7567 34.5567ZM36.5834 32.13H41.09L38.8367 34.3833L36.5834 32.13ZM49.7567 28.49C49.7567 29.0678 49.4967 29.5878 48.9767 30.05C48.4567 30.5122 47.9078 30.7433 47.33 30.7433H30.3434C29.65 30.7433 29.0723 30.5122 28.61 30.05C28.1478 29.5878 27.9167 29.0389 27.9167 28.4033C27.9167 27.7678 28.1189 27.2478 28.5234 26.8433C28.9278 26.4389 29.4189 26.1789 29.9967 26.0633L33.81 29.7033C33.9256 29.8189 34.07 29.8767 34.2434 29.8767C34.4167 29.8767 34.6189 29.8189 34.85 29.7033L38.49 26.0633H47.33C47.9078 26.0633 48.4567 26.2944 48.9767 26.7567C49.4967 27.2189 49.7567 27.7967 49.7567 28.49ZM10.5834 29.8767C8.61893 29.8767 6.94338 30.57 5.55671 31.9567C4.17004 33.3433 3.47671 34.99 3.47671 36.8967C3.47671 38.8033 4.17004 40.45 5.55671 41.8367C6.94338 43.2233 8.61893 43.9167 10.5834 43.9167C12.5478 43.9167 14.1945 43.2233 15.5234 41.8367C16.8523 40.45 17.5167 38.8033 17.5167 36.8967C17.5167 34.99 16.8523 33.3433 15.5234 31.9567C14.1945 30.57 12.5478 29.8767 10.5834 29.8767ZM10.5834 42.53C8.9656 42.53 7.63671 41.9811 6.59671 40.8833C5.55671 39.7856 5.03671 38.4567 5.03671 36.8967C5.03671 35.3367 5.55671 34.0078 6.59671 32.91C7.63671 31.8122 8.93671 31.2633 10.4967 31.2633C12.0567 31.2633 13.3856 31.8122 14.4834 32.91C15.5812 34.0078 16.13 35.3367 16.13 36.8967C16.13 38.4567 15.5812 39.7856 14.4834 40.8833C13.3856 41.9811 12.0856 42.53 10.5834 42.53ZM13.8767 34.3833C13.9923 34.4989 14.05 34.6433 14.05 34.8167C14.05 34.99 13.9923 35.1922 13.8767 35.4233L9.54338 39.7567C9.31226 39.8722 9.13893 39.93 9.02338 39.93C8.79226 39.93 8.61893 39.8722 8.50338 39.7567L6.42338 37.6767C6.30782 37.5611 6.25004 37.3878 6.25004 37.1567C6.25004 36.9256 6.33671 36.7522 6.51004 36.6367C6.68338 36.5211 6.85671 36.4633 7.03004 36.4633C7.20338 36.4633 7.34782 36.5211 7.46338 36.6367L9.02338 38.1967L12.8367 34.3833C13.0678 34.2678 13.27 34.21 13.4434 34.21C13.6167 34.21 13.7612 34.2678 13.8767 34.3833ZM41.9567 19.13C41.9567 18.8989 42.0434 18.6967 42.2167 18.5233C42.39 18.35 42.5923 18.2633 42.8234 18.2633C43.0545 18.2633 43.2567 18.35 43.43 18.5233C43.6034 18.6967 43.69 18.8989 43.69 19.13C43.69 19.3611 43.6034 19.5633 43.43 19.7367C43.2567 19.91 43.0545 19.9967 42.8234 19.9967C42.5923 19.9967 42.39 19.91 42.2167 19.7367C42.0434 19.5633 41.9567 19.3611 41.9567 19.13ZM40.05 22.25C40.05 22.0189 40.1367 21.8167 40.31 21.6433C40.4834 21.47 40.6856 21.3833 40.9167 21.3833C41.1478 21.3833 41.3212 21.47 41.4367 21.6433C41.5523 21.8167 41.61 22.0189 41.61 22.25C41.61 22.4811 41.5523 22.6544 41.4367 22.77C41.3212 22.8856 41.1478 22.9433 40.9167 22.9433C40.6856 22.9433 40.4834 22.8856 40.31 22.77C40.1367 22.6544 40.05 22.4811 40.05 22.25ZM44.0367 22.25C44.0367 22.0189 44.1234 21.8167 44.2967 21.6433C44.47 21.47 44.6723 21.3833 44.9034 21.3833C45.1345 21.3833 45.3367 21.47 45.51 21.6433C45.6834 21.8167 45.77 22.0189 45.77 22.25C45.77 22.4811 45.6834 22.6544 45.51 22.77C45.3367 22.8856 45.1345 22.9433 44.9034 22.9433C44.6723 22.9433 44.47 22.8856 44.2967 22.77C44.1234 22.6544 44.0367 22.4811 44.0367 22.25ZM31.9034 22.25C31.9034 22.0189 31.99 21.8167 32.1634 21.6433C32.3367 21.47 32.5389 21.3833 32.77 21.3833C33.0012 21.3833 33.2034 21.47 33.3767 21.6433C33.55 21.8167 33.6367 22.0189 33.6367 22.25C33.6367 22.4811 33.55 22.6544 33.3767 22.77C33.2034 22.8856 33.0012 22.9433 32.77 22.9433C32.5389 22.9433 32.3367 22.8856 32.1634 22.77C31.99 22.6544 31.9034 22.4811 31.9034 22.25ZM33.9834 19.13C33.9834 18.8989 34.07 18.6967 34.2434 18.5233C34.4167 18.35 34.6189 18.2633 34.85 18.2633C35.0812 18.2633 35.2545 18.35 35.37 18.5233C35.4856 18.6967 35.5434 18.8989 35.5434 19.13C35.5434 19.3611 35.4856 19.5633 35.37 19.7367C35.2545 19.91 35.0812 19.9967 34.85 19.9967C34.6189 19.9967 34.4167 19.91 34.2434 19.7367C34.07 19.5633 33.9834 19.3611 33.9834 19.13ZM36.0634 22.25C36.0634 22.0189 36.1212 21.8167 36.2367 21.6433C36.3523 21.47 36.5256 21.3833 36.7567 21.3833C36.9878 21.3833 37.19 21.47 37.3634 21.6433C37.5367 21.8167 37.6234 22.0189 37.6234 22.25C37.6234 22.4811 37.5367 22.6544 37.3634 22.77C37.19 22.8856 36.9878 22.9433 36.7567 22.9433C36.5256 22.9433 36.3523 22.8856 36.2367 22.77C36.1212 22.6544 36.0634 22.4811 36.0634 22.25ZM37.97 19.13C37.97 18.8989 38.0567 18.6967 38.23 18.5233C38.4034 18.35 38.6056 18.2633 38.8367 18.2633C39.0678 18.2633 39.27 18.35 39.4434 18.5233C39.6167 18.6967 39.7034 18.8989 39.7034 19.13C39.7034 19.3611 39.6167 19.5633 39.4434 19.7367C39.27 19.91 39.0678 19.9967 38.8367 19.9967C38.6056 19.9967 38.4034 19.91 38.23 19.7367C38.0567 19.5633 37.97 19.3611 37.97 19.13Z" fill="#FFC222"/>
</svg>
