<svg width="53" height="53" viewBox="0 0 53 53" fill="none" xmlns="http://www.w3.org/2000/svg">
<path d="M15.7633 7.34333L18.5366 9.59667L17.6699 13.0633C17.5544 13.5256 17.6699 13.93 18.0166 14.2767C18.2477 14.3922 18.4788 14.45 18.7099 14.45C18.941 14.45 19.1144 14.3922 19.2299 14.2767L22.3499 12.37L25.2966 14.2767C25.6433 14.5078 26.0477 14.4789 26.5099 14.19C26.9722 13.9011 27.0877 13.5256 26.8566 13.0633L25.9899 9.59667L28.7633 7.34333C29.1099 6.99667 29.2255 6.59222 29.1099 6.13C28.9944 5.66778 28.6477 5.43667 28.0699 5.43667L24.6033 5.26334L23.3899 1.97C23.1588 1.50778 22.8122 1.27667 22.3499 1.27667C21.7722 1.27667 21.4255 1.50778 21.3099 1.97L19.9233 5.26334L16.4566 5.43667C15.9944 5.43667 15.6766 5.66778 15.5033 6.13C15.3299 6.59222 15.4166 6.99667 15.7633 7.34333ZM20.4433 6.82333C20.9055 6.82333 21.1944 6.59222 21.3099 6.13L22.3499 3.87667L23.2166 6.13C23.3322 6.59222 23.621 6.82333 24.0833 6.82333L26.6833 6.99667L24.7766 8.55667C24.3144 8.90334 24.141 9.30778 24.2566 9.77L24.9499 12.1967L22.8699 10.81C22.6388 10.6944 22.4366 10.6367 22.2633 10.6367C22.0899 10.6367 21.8877 10.6944 21.6566 10.81L19.5766 12.1967L20.2699 9.77C20.3855 9.30778 20.2699 8.90334 19.9233 8.55667L17.8433 6.99667L20.4433 6.82333ZM8.82993 17.3967L11.7766 19.4767C12.2388 19.7078 12.6722 19.6789 13.0766 19.39C13.481 19.1011 13.6255 18.7256 13.5099 18.2633L12.6433 14.7967L15.4166 12.5433C15.7633 12.1967 15.8499 11.7922 15.6766 11.33C15.5033 10.8678 15.1855 10.6367 14.7233 10.6367L11.0833 10.4633L9.86993 7.17C9.75437 6.59222 9.40771 6.30334 8.82993 6.30334C8.36771 6.30334 8.02104 6.59222 7.78993 7.17L6.5766 10.4633L3.10993 10.6367C2.53215 10.6367 2.1566 10.8678 1.98326 11.33C1.80993 11.7922 1.95437 12.1967 2.4166 12.5433L5.18993 14.7967L4.14993 18.2633C4.03437 18.7256 4.20771 19.0722 4.66993 19.3033C4.90104 19.5344 5.10326 19.65 5.2766 19.65C5.44993 19.65 5.65215 19.5922 5.88326 19.4767L8.82993 17.3967ZM4.4966 12.1967L6.92326 12.0233C7.50104 12.0233 7.84771 11.7922 7.96326 11.33L8.82993 8.90334L9.6966 11.33C9.92771 11.7922 10.2744 12.0233 10.7366 12.0233L13.3366 12.1967L11.2566 13.7567C10.9099 13.9878 10.7944 14.3344 10.9099 14.7967L11.6033 17.2233L9.52326 15.8367C9.29215 15.7211 9.06104 15.6633 8.82993 15.6633C8.59882 15.6633 8.42549 15.7211 8.30993 15.8367L6.22993 17.2233L6.74993 14.7967C6.98104 14.3344 6.86548 13.9878 6.40326 13.7567L4.4966 12.1967ZM28.9366 11.33C28.7055 11.7922 28.821 12.1967 29.2833 12.5433L32.0566 14.7967L31.0166 18.2633C30.901 18.7256 31.0744 19.0722 31.5366 19.3033C31.6522 19.5344 31.8255 19.65 32.0566 19.65C32.2877 19.65 32.5188 19.5922 32.7499 19.4767L35.6966 17.3967L38.6433 19.4767C39.1055 19.7078 39.5388 19.6789 39.9433 19.39C40.3477 19.1011 40.4921 18.7256 40.3766 18.2633L39.3366 14.7967L42.1099 12.5433C42.5722 12.1967 42.7166 11.7922 42.5433 11.33C42.3699 10.8678 42.0522 10.6367 41.5899 10.6367L37.9499 10.4633L36.7366 7.17C36.5055 6.59222 36.1588 6.30334 35.6966 6.30334C35.2344 6.30334 34.8877 6.59222 34.6566 7.17L33.4433 10.4633L29.8033 10.6367C29.341 10.6367 29.0522 10.8678 28.9366 11.33ZM33.7899 12.0233C34.2522 12.0233 34.5988 11.7922 34.8299 11.33L35.6966 8.90334L36.5633 11.33C36.7944 11.7922 37.141 12.0233 37.6033 12.0233L40.0299 12.1967L38.1233 13.7567C37.7766 13.9878 37.661 14.3344 37.7766 14.7967L38.4699 17.2233L36.2166 15.8367C36.101 15.7211 35.9277 15.6633 35.6966 15.6633C35.4655 15.6633 35.2344 15.7211 35.0033 15.8367L32.9233 17.2233L33.6166 14.7967C33.7322 14.3344 33.6166 13.9878 33.2699 13.7567L31.3633 12.1967L33.7899 12.0233ZM41.4166 32.3033C39.9144 32.3033 38.4988 32.6211 37.1699 33.2567C35.841 33.8922 34.7144 34.7878 33.7899 35.9433C31.7099 33.8633 29.2833 32.4767 26.5099 31.7833C27.8966 30.9744 28.9944 29.8767 29.8033 28.49C30.6122 27.1033 31.0166 25.6011 31.0166 23.9833C31.0166 21.5567 30.1788 19.5056 28.5033 17.83C26.8277 16.1544 24.7766 15.3167 22.3499 15.3167C19.9233 15.3167 17.8433 16.1544 16.1099 17.83C14.3766 19.5056 13.5099 21.5567 13.5099 23.9833C13.5099 25.6011 13.9144 27.1033 14.7233 28.49C15.5322 29.8767 16.6299 30.9744 18.0166 31.7833C15.4744 32.4767 13.221 33.69 11.2566 35.4233C9.63882 36.81 8.3966 38.3989 7.52993 40.19C6.66326 41.9811 6.11437 43.9167 5.88326 45.9967C5.76771 46.2278 5.7966 46.43 5.96993 46.6033C6.14326 46.7767 6.34548 46.8633 6.5766 46.8633H33.0966C33.9055 48.25 35.061 49.3767 36.5633 50.2433C38.0655 51.11 39.6833 51.5433 41.4166 51.5433C44.0744 51.5433 46.3566 50.6189 48.2633 48.77C50.1699 46.9211 51.1233 44.6389 51.1233 41.9233C51.1233 39.2078 50.1699 36.9256 48.2633 35.0767C46.3566 33.2278 44.0744 32.3033 41.4166 32.3033ZM15.0699 23.9833C15.0699 22.0189 15.7922 20.3433 17.2366 18.9567C18.681 17.57 20.3855 16.8767 22.3499 16.8767C24.3144 16.8767 25.9899 17.57 27.3766 18.9567C28.7633 20.3433 29.4566 22.0189 29.4566 23.9833C29.4566 25.9478 28.7633 27.6233 27.3766 29.01C25.9899 30.3967 24.3144 31.09 22.3499 31.09C20.3855 31.09 18.681 30.3967 17.2366 29.01C15.7922 27.6233 15.0699 25.9478 15.0699 23.9833ZM7.6166 45.3033C8.19437 41.7211 9.86993 38.7456 12.6433 36.3767C15.4166 34.0078 18.6522 32.8233 22.3499 32.8233C24.3144 32.8233 26.221 33.1989 28.0699 33.95C29.9188 34.7011 31.5366 35.8278 32.9233 37.33C32.1144 38.7167 31.7099 40.2767 31.7099 42.01C31.7099 43.05 31.8833 44.1478 32.2299 45.3033H7.6166ZM41.4166 49.9833C39.221 49.9833 37.3144 49.2033 35.6966 47.6433C34.0788 46.0833 33.2699 44.1767 33.2699 41.9233C33.2699 39.67 34.0788 37.7633 35.6966 36.2033C37.3144 34.6433 39.221 33.8633 41.4166 33.8633C43.6122 33.8633 45.4899 34.6433 47.0499 36.2033C48.6099 37.7633 49.3899 39.67 49.3899 41.9233C49.3899 44.1767 48.6099 46.0833 47.0499 47.6433C45.4899 49.2033 43.6122 49.9833 41.4166 49.9833ZM46.9633 37.85C46.501 37.3878 45.981 37.1567 45.4033 37.1567C44.8255 37.1567 44.3633 37.3878 44.0166 37.85L40.2033 41.49L38.8166 40.1033C38.3544 39.7567 37.8344 39.5833 37.2566 39.5833C36.6788 39.5833 36.1877 39.7856 35.7833 40.19C35.3788 40.5944 35.1766 41.0856 35.1766 41.6633C35.1766 42.2411 35.4077 42.7611 35.8699 43.2233L38.6433 45.9967C39.1055 46.4589 39.6255 46.69 40.2033 46.69C40.781 46.69 41.301 46.4589 41.7633 45.9967L46.9633 40.7967C47.3099 40.3344 47.4833 39.8144 47.4833 39.2367C47.4833 38.6589 47.3099 38.1967 46.9633 37.85ZM45.7499 39.5833C45.4033 40.0456 44.7677 40.6811 43.8433 41.49L40.5499 44.9567C40.3188 45.1878 40.0877 45.1878 39.8566 44.9567L36.9099 42.01C36.6788 41.7789 36.6499 41.5767 36.8233 41.4033C36.9966 41.23 37.141 41.1433 37.2566 41.1433C37.3722 41.1433 37.4877 41.2011 37.6033 41.3167L39.6833 43.2233C39.7988 43.4544 39.9721 43.57 40.2033 43.57C40.4344 43.57 40.6077 43.4544 40.7233 43.2233L45.0566 38.89C45.1721 38.7744 45.2877 38.7167 45.4033 38.7167C45.5188 38.7167 45.6633 38.8033 45.8366 38.9767C46.0099 39.15 45.981 39.3522 45.7499 39.5833Z" fill="#FFC222"/>
</svg>
